<mxfile host="app.diagrams.net" modified="2021-04-30T13:45:41.590Z" agent="5.0 (Windows NT 10.0; WOW64) AppleWebKit/537.36 (KHTML, like Gecko) Chrome/78.0.3904.108 Safari/537.36" etag="d7aMcX2M38P15RXkGty7" version="14.6.6" type="github">
  <diagram id="EOdlGuU-amcfiD9qs_cZ" name="Page-1">
    <mxGraphModel dx="1721" dy="711" grid="1" gridSize="10" guides="1" tooltips="1" connect="1" arrows="1" fold="1" page="1" pageScale="1" pageWidth="827" pageHeight="1169" math="0" shadow="0">
      <root>
        <mxCell id="0" />
        <mxCell id="1" parent="0" />
        <mxCell id="XcZf_mjL38OoCe0W9eR9-17" style="edgeStyle=orthogonalEdgeStyle;rounded=0;orthogonalLoop=1;jettySize=auto;html=1;exitX=1;exitY=0.5;exitDx=0;exitDy=0;exitPerimeter=0;entryX=0.175;entryY=0.25;entryDx=0;entryDy=0;entryPerimeter=0;endArrow=none;endFill=0;" edge="1" parent="1" source="XcZf_mjL38OoCe0W9eR9-1" target="XcZf_mjL38OoCe0W9eR9-4">
          <mxGeometry relative="1" as="geometry">
            <Array as="points">
              <mxPoint x="320" y="170" />
              <mxPoint x="320" y="260" />
            </Array>
          </mxGeometry>
        </mxCell>
        <mxCell id="XcZf_mjL38OoCe0W9eR9-1" value="" style="shape=or;whiteSpace=wrap;html=1;" vertex="1" parent="1">
          <mxGeometry x="200" y="130" width="60" height="80" as="geometry" />
        </mxCell>
        <mxCell id="XcZf_mjL38OoCe0W9eR9-15" style="edgeStyle=orthogonalEdgeStyle;rounded=0;orthogonalLoop=1;jettySize=auto;html=1;exitX=1;exitY=0.5;exitDx=0;exitDy=0;exitPerimeter=0;entryX=0.25;entryY=0.5;entryDx=0;entryDy=0;entryPerimeter=0;endArrow=none;endFill=0;" edge="1" parent="1" source="XcZf_mjL38OoCe0W9eR9-2" target="XcZf_mjL38OoCe0W9eR9-4">
          <mxGeometry relative="1" as="geometry" />
        </mxCell>
        <mxCell id="XcZf_mjL38OoCe0W9eR9-2" value="" style="shape=or;whiteSpace=wrap;html=1;" vertex="1" parent="1">
          <mxGeometry x="200" y="240" width="60" height="80" as="geometry" />
        </mxCell>
        <mxCell id="XcZf_mjL38OoCe0W9eR9-16" style="edgeStyle=orthogonalEdgeStyle;rounded=0;orthogonalLoop=1;jettySize=auto;html=1;exitX=1;exitY=0.5;exitDx=0;exitDy=0;exitPerimeter=0;entryX=0.175;entryY=0.75;entryDx=0;entryDy=0;entryPerimeter=0;endArrow=none;endFill=0;" edge="1" parent="1" source="XcZf_mjL38OoCe0W9eR9-3" target="XcZf_mjL38OoCe0W9eR9-4">
          <mxGeometry relative="1" as="geometry">
            <Array as="points">
              <mxPoint x="320" y="400" />
              <mxPoint x="320" y="300" />
            </Array>
          </mxGeometry>
        </mxCell>
        <mxCell id="XcZf_mjL38OoCe0W9eR9-3" value="" style="shape=or;whiteSpace=wrap;html=1;" vertex="1" parent="1">
          <mxGeometry x="200" y="360" width="60" height="80" as="geometry" />
        </mxCell>
        <mxCell id="XcZf_mjL38OoCe0W9eR9-18" style="edgeStyle=orthogonalEdgeStyle;rounded=0;orthogonalLoop=1;jettySize=auto;html=1;exitX=1;exitY=0.5;exitDx=0;exitDy=0;exitPerimeter=0;endArrow=none;endFill=0;" edge="1" parent="1" source="XcZf_mjL38OoCe0W9eR9-4">
          <mxGeometry relative="1" as="geometry">
            <mxPoint x="480" y="280" as="targetPoint" />
          </mxGeometry>
        </mxCell>
        <mxCell id="XcZf_mjL38OoCe0W9eR9-4" value="" style="shape=xor;whiteSpace=wrap;html=1;" vertex="1" parent="1">
          <mxGeometry x="354" y="240" width="60" height="80" as="geometry" />
        </mxCell>
        <mxCell id="XcZf_mjL38OoCe0W9eR9-8" style="edgeStyle=orthogonalEdgeStyle;rounded=0;orthogonalLoop=1;jettySize=auto;html=1;exitX=1;exitY=0.5;exitDx=0;exitDy=0;entryX=0;entryY=0.25;entryDx=0;entryDy=0;entryPerimeter=0;endArrow=none;endFill=0;" edge="1" parent="1" source="XcZf_mjL38OoCe0W9eR9-5" target="XcZf_mjL38OoCe0W9eR9-1">
          <mxGeometry relative="1" as="geometry" />
        </mxCell>
        <mxCell id="XcZf_mjL38OoCe0W9eR9-10" style="edgeStyle=orthogonalEdgeStyle;rounded=0;orthogonalLoop=1;jettySize=auto;html=1;exitX=1;exitY=0.5;exitDx=0;exitDy=0;entryX=0;entryY=0.25;entryDx=0;entryDy=0;entryPerimeter=0;endArrow=none;endFill=0;" edge="1" parent="1" source="XcZf_mjL38OoCe0W9eR9-5" target="XcZf_mjL38OoCe0W9eR9-3">
          <mxGeometry relative="1" as="geometry">
            <Array as="points">
              <mxPoint x="80" y="150" />
              <mxPoint x="80" y="380" />
            </Array>
          </mxGeometry>
        </mxCell>
        <mxCell id="XcZf_mjL38OoCe0W9eR9-5" value="Module 1" style="rounded=0;whiteSpace=wrap;html=1;" vertex="1" parent="1">
          <mxGeometry x="-100" y="120" width="120" height="60" as="geometry" />
        </mxCell>
        <mxCell id="XcZf_mjL38OoCe0W9eR9-12" style="edgeStyle=orthogonalEdgeStyle;rounded=0;orthogonalLoop=1;jettySize=auto;html=1;exitX=1;exitY=0.5;exitDx=0;exitDy=0;entryX=0;entryY=0.75;entryDx=0;entryDy=0;entryPerimeter=0;endArrow=none;endFill=0;" edge="1" parent="1" source="XcZf_mjL38OoCe0W9eR9-6" target="XcZf_mjL38OoCe0W9eR9-1">
          <mxGeometry relative="1" as="geometry" />
        </mxCell>
        <mxCell id="XcZf_mjL38OoCe0W9eR9-13" style="edgeStyle=orthogonalEdgeStyle;rounded=0;orthogonalLoop=1;jettySize=auto;html=1;exitX=1;exitY=0.5;exitDx=0;exitDy=0;entryX=0;entryY=0.25;entryDx=0;entryDy=0;entryPerimeter=0;endArrow=none;endFill=0;" edge="1" parent="1" source="XcZf_mjL38OoCe0W9eR9-6" target="XcZf_mjL38OoCe0W9eR9-2">
          <mxGeometry relative="1" as="geometry" />
        </mxCell>
        <mxCell id="XcZf_mjL38OoCe0W9eR9-6" value="Module 2" style="rounded=0;whiteSpace=wrap;html=1;" vertex="1" parent="1">
          <mxGeometry x="-100" y="230" width="120" height="60" as="geometry" />
        </mxCell>
        <mxCell id="XcZf_mjL38OoCe0W9eR9-11" style="edgeStyle=orthogonalEdgeStyle;rounded=0;orthogonalLoop=1;jettySize=auto;html=1;exitX=1;exitY=0.5;exitDx=0;exitDy=0;entryX=0;entryY=0.75;entryDx=0;entryDy=0;entryPerimeter=0;endArrow=none;endFill=0;" edge="1" parent="1" source="XcZf_mjL38OoCe0W9eR9-7" target="XcZf_mjL38OoCe0W9eR9-3">
          <mxGeometry relative="1" as="geometry" />
        </mxCell>
        <mxCell id="XcZf_mjL38OoCe0W9eR9-14" style="edgeStyle=orthogonalEdgeStyle;rounded=0;orthogonalLoop=1;jettySize=auto;html=1;exitX=1;exitY=0.5;exitDx=0;exitDy=0;entryX=0;entryY=0.75;entryDx=0;entryDy=0;entryPerimeter=0;endArrow=none;endFill=0;" edge="1" parent="1" source="XcZf_mjL38OoCe0W9eR9-7" target="XcZf_mjL38OoCe0W9eR9-2">
          <mxGeometry relative="1" as="geometry" />
        </mxCell>
        <mxCell id="XcZf_mjL38OoCe0W9eR9-7" value="Module 3" style="rounded=0;whiteSpace=wrap;html=1;" vertex="1" parent="1">
          <mxGeometry x="-100" y="390" width="120" height="60" as="geometry" />
        </mxCell>
        <mxCell id="XcZf_mjL38OoCe0W9eR9-19" value="IN1" style="text;html=1;align=center;verticalAlign=middle;resizable=0;points=[];autosize=1;strokeColor=none;" vertex="1" parent="1">
          <mxGeometry x="65" y="120" width="30" height="20" as="geometry" />
        </mxCell>
        <mxCell id="XcZf_mjL38OoCe0W9eR9-20" value="IN2" style="text;html=1;align=center;verticalAlign=middle;resizable=0;points=[];autosize=1;strokeColor=none;" vertex="1" parent="1">
          <mxGeometry x="85" y="260" width="30" height="20" as="geometry" />
        </mxCell>
        <mxCell id="XcZf_mjL38OoCe0W9eR9-21" value="IN3" style="text;html=1;align=center;verticalAlign=middle;resizable=0;points=[];autosize=1;strokeColor=none;" vertex="1" parent="1">
          <mxGeometry x="85" y="420" width="30" height="20" as="geometry" />
        </mxCell>
        <mxCell id="XcZf_mjL38OoCe0W9eR9-22" value="AND1" style="text;html=1;align=center;verticalAlign=middle;resizable=0;points=[];autosize=1;strokeColor=none;" vertex="1" parent="1">
          <mxGeometry x="225" y="120" width="50" height="20" as="geometry" />
        </mxCell>
        <mxCell id="XcZf_mjL38OoCe0W9eR9-23" value="AND2" style="text;html=1;align=center;verticalAlign=middle;resizable=0;points=[];autosize=1;strokeColor=none;" vertex="1" parent="1">
          <mxGeometry x="225" y="230" width="50" height="20" as="geometry" />
        </mxCell>
        <mxCell id="XcZf_mjL38OoCe0W9eR9-24" value="AND3" style="text;html=1;align=center;verticalAlign=middle;resizable=0;points=[];autosize=1;strokeColor=none;" vertex="1" parent="1">
          <mxGeometry x="215" y="350" width="50" height="20" as="geometry" />
        </mxCell>
        <mxCell id="XcZf_mjL38OoCe0W9eR9-25" value="OR1" style="text;html=1;align=center;verticalAlign=middle;resizable=0;points=[];autosize=1;strokeColor=none;" vertex="1" parent="1">
          <mxGeometry x="390" y="230" width="40" height="20" as="geometry" />
        </mxCell>
        <mxCell id="XcZf_mjL38OoCe0W9eR9-26" value="OUT" style="text;html=1;align=center;verticalAlign=middle;resizable=0;points=[];autosize=1;strokeColor=none;" vertex="1" parent="1">
          <mxGeometry x="450" y="280" width="40" height="20" as="geometry" />
        </mxCell>
        <mxCell id="XcZf_mjL38OoCe0W9eR9-84" style="edgeStyle=orthogonalEdgeStyle;rounded=0;orthogonalLoop=1;jettySize=auto;html=1;exitX=1;exitY=0.5;exitDx=0;exitDy=0;exitPerimeter=0;entryX=0.175;entryY=0.25;entryDx=0;entryDy=0;entryPerimeter=0;endArrow=none;endFill=0;" edge="1" parent="1" source="XcZf_mjL38OoCe0W9eR9-28" target="XcZf_mjL38OoCe0W9eR9-34">
          <mxGeometry relative="1" as="geometry">
            <Array as="points">
              <mxPoint x="380" y="600" />
              <mxPoint x="380" y="790" />
            </Array>
          </mxGeometry>
        </mxCell>
        <mxCell id="XcZf_mjL38OoCe0W9eR9-28" value="" style="shape=or;whiteSpace=wrap;html=1;" vertex="1" parent="1">
          <mxGeometry x="240" y="560" width="60" height="80" as="geometry" />
        </mxCell>
        <mxCell id="XcZf_mjL38OoCe0W9eR9-85" style="edgeStyle=orthogonalEdgeStyle;rounded=0;orthogonalLoop=1;jettySize=auto;html=1;exitX=1;exitY=0.5;exitDx=0;exitDy=0;exitPerimeter=0;entryX=0.25;entryY=0.35;entryDx=0;entryDy=0;entryPerimeter=0;endArrow=none;endFill=0;" edge="1" parent="1" source="XcZf_mjL38OoCe0W9eR9-30" target="XcZf_mjL38OoCe0W9eR9-34">
          <mxGeometry relative="1" as="geometry">
            <Array as="points">
              <mxPoint x="360" y="700" />
              <mxPoint x="360" y="798" />
            </Array>
          </mxGeometry>
        </mxCell>
        <mxCell id="XcZf_mjL38OoCe0W9eR9-30" value="" style="shape=or;whiteSpace=wrap;html=1;" vertex="1" parent="1">
          <mxGeometry x="240" y="660" width="60" height="80" as="geometry" />
        </mxCell>
        <mxCell id="XcZf_mjL38OoCe0W9eR9-86" style="edgeStyle=orthogonalEdgeStyle;rounded=0;orthogonalLoop=1;jettySize=auto;html=1;exitX=1;exitY=0.5;exitDx=0;exitDy=0;exitPerimeter=0;entryX=0.25;entryY=0.5;entryDx=0;entryDy=0;entryPerimeter=0;endArrow=none;endFill=0;" edge="1" parent="1" source="XcZf_mjL38OoCe0W9eR9-32" target="XcZf_mjL38OoCe0W9eR9-34">
          <mxGeometry relative="1" as="geometry" />
        </mxCell>
        <mxCell id="XcZf_mjL38OoCe0W9eR9-32" value="" style="shape=or;whiteSpace=wrap;html=1;" vertex="1" parent="1">
          <mxGeometry x="240" y="770" width="60" height="80" as="geometry" />
        </mxCell>
        <mxCell id="XcZf_mjL38OoCe0W9eR9-83" style="edgeStyle=orthogonalEdgeStyle;rounded=0;orthogonalLoop=1;jettySize=auto;html=1;exitX=1;exitY=0.5;exitDx=0;exitDy=0;exitPerimeter=0;endArrow=none;endFill=0;" edge="1" parent="1" source="XcZf_mjL38OoCe0W9eR9-34">
          <mxGeometry relative="1" as="geometry">
            <mxPoint x="520" y="810" as="targetPoint" />
          </mxGeometry>
        </mxCell>
        <mxCell id="XcZf_mjL38OoCe0W9eR9-34" value="" style="shape=xor;whiteSpace=wrap;html=1;" vertex="1" parent="1">
          <mxGeometry x="400" y="770" width="60" height="80" as="geometry" />
        </mxCell>
        <mxCell id="XcZf_mjL38OoCe0W9eR9-67" style="edgeStyle=orthogonalEdgeStyle;rounded=0;orthogonalLoop=1;jettySize=auto;html=1;exitX=1;exitY=0.5;exitDx=0;exitDy=0;entryX=0;entryY=0.25;entryDx=0;entryDy=0;entryPerimeter=0;endArrow=none;endFill=0;" edge="1" parent="1" source="XcZf_mjL38OoCe0W9eR9-37" target="XcZf_mjL38OoCe0W9eR9-28">
          <mxGeometry relative="1" as="geometry" />
        </mxCell>
        <mxCell id="XcZf_mjL38OoCe0W9eR9-82" style="edgeStyle=orthogonalEdgeStyle;rounded=0;orthogonalLoop=1;jettySize=auto;html=1;exitX=1;exitY=0.5;exitDx=0;exitDy=0;entryX=0;entryY=0.75;entryDx=0;entryDy=0;entryPerimeter=0;endArrow=none;endFill=0;" edge="1" parent="1" source="XcZf_mjL38OoCe0W9eR9-37" target="XcZf_mjL38OoCe0W9eR9-66">
          <mxGeometry relative="1" as="geometry">
            <Array as="points">
              <mxPoint x="120" y="580" />
              <mxPoint x="120" y="1030" />
            </Array>
          </mxGeometry>
        </mxCell>
        <mxCell id="XcZf_mjL38OoCe0W9eR9-37" value="Module 1" style="rounded=0;whiteSpace=wrap;html=1;" vertex="1" parent="1">
          <mxGeometry x="-40" y="550" width="120" height="60" as="geometry" />
        </mxCell>
        <mxCell id="XcZf_mjL38OoCe0W9eR9-74" style="edgeStyle=orthogonalEdgeStyle;rounded=0;orthogonalLoop=1;jettySize=auto;html=1;exitX=1;exitY=0.5;exitDx=0;exitDy=0;entryX=0;entryY=0.75;entryDx=0;entryDy=0;entryPerimeter=0;endArrow=none;endFill=0;" edge="1" parent="1" source="XcZf_mjL38OoCe0W9eR9-40" target="XcZf_mjL38OoCe0W9eR9-28">
          <mxGeometry relative="1" as="geometry" />
        </mxCell>
        <mxCell id="XcZf_mjL38OoCe0W9eR9-75" style="edgeStyle=orthogonalEdgeStyle;rounded=0;orthogonalLoop=1;jettySize=auto;html=1;exitX=1;exitY=0.5;exitDx=0;exitDy=0;entryX=0;entryY=0.25;entryDx=0;entryDy=0;entryPerimeter=0;endArrow=none;endFill=0;" edge="1" parent="1" source="XcZf_mjL38OoCe0W9eR9-40" target="XcZf_mjL38OoCe0W9eR9-30">
          <mxGeometry relative="1" as="geometry" />
        </mxCell>
        <mxCell id="XcZf_mjL38OoCe0W9eR9-40" value="Module 2" style="rounded=0;whiteSpace=wrap;html=1;" vertex="1" parent="1">
          <mxGeometry x="-40" y="650" width="120" height="60" as="geometry" />
        </mxCell>
        <mxCell id="XcZf_mjL38OoCe0W9eR9-76" style="edgeStyle=orthogonalEdgeStyle;rounded=0;orthogonalLoop=1;jettySize=auto;html=1;exitX=1;exitY=0.5;exitDx=0;exitDy=0;entryX=0;entryY=0.25;entryDx=0;entryDy=0;entryPerimeter=0;endArrow=none;endFill=0;" edge="1" parent="1" source="XcZf_mjL38OoCe0W9eR9-43" target="XcZf_mjL38OoCe0W9eR9-32">
          <mxGeometry relative="1" as="geometry" />
        </mxCell>
        <mxCell id="XcZf_mjL38OoCe0W9eR9-77" style="edgeStyle=orthogonalEdgeStyle;rounded=0;orthogonalLoop=1;jettySize=auto;html=1;exitX=1;exitY=0.5;exitDx=0;exitDy=0;entryX=0;entryY=0.75;entryDx=0;entryDy=0;entryPerimeter=0;endArrow=none;endFill=0;" edge="1" parent="1" source="XcZf_mjL38OoCe0W9eR9-43" target="XcZf_mjL38OoCe0W9eR9-30">
          <mxGeometry relative="1" as="geometry" />
        </mxCell>
        <mxCell id="XcZf_mjL38OoCe0W9eR9-43" value="Module 3" style="rounded=0;whiteSpace=wrap;html=1;" vertex="1" parent="1">
          <mxGeometry x="-40" y="760" width="120" height="60" as="geometry" />
        </mxCell>
        <mxCell id="XcZf_mjL38OoCe0W9eR9-44" value="&lt;font style=&quot;vertical-align: inherit&quot;&gt;&lt;font style=&quot;vertical-align: inherit&quot;&gt;IN1&lt;/font&gt;&lt;/font&gt;" style="text;html=1;align=center;verticalAlign=middle;resizable=0;points=[];autosize=1;strokeColor=none;" vertex="1" parent="1">
          <mxGeometry x="125" y="550" width="30" height="20" as="geometry" />
        </mxCell>
        <mxCell id="XcZf_mjL38OoCe0W9eR9-45" value="&lt;font style=&quot;vertical-align: inherit&quot;&gt;&lt;font style=&quot;vertical-align: inherit&quot;&gt;IN2&lt;/font&gt;&lt;/font&gt;" style="text;html=1;align=center;verticalAlign=middle;resizable=0;points=[];autosize=1;strokeColor=none;" vertex="1" parent="1">
          <mxGeometry x="125" y="650" width="30" height="20" as="geometry" />
        </mxCell>
        <mxCell id="XcZf_mjL38OoCe0W9eR9-46" value="IN3" style="text;html=1;align=center;verticalAlign=middle;resizable=0;points=[];autosize=1;strokeColor=none;" vertex="1" parent="1">
          <mxGeometry x="125" y="770" width="30" height="20" as="geometry" />
        </mxCell>
        <mxCell id="XcZf_mjL38OoCe0W9eR9-47" value="AND1" style="text;html=1;align=center;verticalAlign=middle;resizable=0;points=[];autosize=1;strokeColor=none;" vertex="1" parent="1">
          <mxGeometry x="300" y="560" width="50" height="20" as="geometry" />
        </mxCell>
        <mxCell id="XcZf_mjL38OoCe0W9eR9-48" value="AND2" style="text;html=1;align=center;verticalAlign=middle;resizable=0;points=[];autosize=1;strokeColor=none;" vertex="1" parent="1">
          <mxGeometry x="290" y="650" width="50" height="20" as="geometry" />
        </mxCell>
        <mxCell id="XcZf_mjL38OoCe0W9eR9-49" value="AND3" style="text;html=1;align=center;verticalAlign=middle;resizable=0;points=[];autosize=1;strokeColor=none;" vertex="1" parent="1">
          <mxGeometry x="290" y="760" width="50" height="20" as="geometry" />
        </mxCell>
        <mxCell id="XcZf_mjL38OoCe0W9eR9-50" value="OR1" style="text;html=1;align=center;verticalAlign=middle;resizable=0;points=[];autosize=1;strokeColor=none;" vertex="1" parent="1">
          <mxGeometry x="440" y="760" width="40" height="20" as="geometry" />
        </mxCell>
        <mxCell id="XcZf_mjL38OoCe0W9eR9-51" value="OUT" style="text;html=1;align=center;verticalAlign=middle;resizable=0;points=[];autosize=1;strokeColor=none;" vertex="1" parent="1">
          <mxGeometry x="490" y="810" width="40" height="20" as="geometry" />
        </mxCell>
        <mxCell id="XcZf_mjL38OoCe0W9eR9-78" style="edgeStyle=orthogonalEdgeStyle;rounded=0;orthogonalLoop=1;jettySize=auto;html=1;exitX=1;exitY=0.5;exitDx=0;exitDy=0;entryX=0;entryY=0.25;entryDx=0;entryDy=0;entryPerimeter=0;endArrow=none;endFill=0;" edge="1" parent="1" source="XcZf_mjL38OoCe0W9eR9-52" target="XcZf_mjL38OoCe0W9eR9-65">
          <mxGeometry relative="1" as="geometry" />
        </mxCell>
        <mxCell id="XcZf_mjL38OoCe0W9eR9-79" style="edgeStyle=orthogonalEdgeStyle;rounded=0;orthogonalLoop=1;jettySize=auto;html=1;exitX=1;exitY=0.5;exitDx=0;exitDy=0;entryX=0;entryY=0.75;entryDx=0;entryDy=0;entryPerimeter=0;endArrow=none;endFill=0;" edge="1" parent="1" source="XcZf_mjL38OoCe0W9eR9-52" target="XcZf_mjL38OoCe0W9eR9-32">
          <mxGeometry relative="1" as="geometry" />
        </mxCell>
        <mxCell id="XcZf_mjL38OoCe0W9eR9-52" value="&lt;font style=&quot;vertical-align: inherit&quot;&gt;&lt;font style=&quot;vertical-align: inherit&quot;&gt;Module 4&lt;/font&gt;&lt;/font&gt;" style="rounded=0;whiteSpace=wrap;html=1;" vertex="1" parent="1">
          <mxGeometry x="-40" y="860" width="120" height="60" as="geometry" />
        </mxCell>
        <mxCell id="XcZf_mjL38OoCe0W9eR9-80" style="edgeStyle=orthogonalEdgeStyle;rounded=0;orthogonalLoop=1;jettySize=auto;html=1;exitX=1;exitY=0.5;exitDx=0;exitDy=0;entryX=0;entryY=0.25;entryDx=0;entryDy=0;entryPerimeter=0;endArrow=none;endFill=0;" edge="1" parent="1" source="XcZf_mjL38OoCe0W9eR9-53" target="XcZf_mjL38OoCe0W9eR9-66">
          <mxGeometry relative="1" as="geometry" />
        </mxCell>
        <mxCell id="XcZf_mjL38OoCe0W9eR9-81" style="edgeStyle=orthogonalEdgeStyle;rounded=0;orthogonalLoop=1;jettySize=auto;html=1;exitX=1;exitY=0.5;exitDx=0;exitDy=0;entryX=0;entryY=0.75;entryDx=0;entryDy=0;entryPerimeter=0;endArrow=none;endFill=0;" edge="1" parent="1" source="XcZf_mjL38OoCe0W9eR9-53" target="XcZf_mjL38OoCe0W9eR9-65">
          <mxGeometry relative="1" as="geometry" />
        </mxCell>
        <mxCell id="XcZf_mjL38OoCe0W9eR9-53" value="&lt;font style=&quot;vertical-align: inherit&quot;&gt;&lt;font style=&quot;vertical-align: inherit&quot;&gt;Module 5&lt;/font&gt;&lt;/font&gt;" style="rounded=0;whiteSpace=wrap;html=1;" vertex="1" parent="1">
          <mxGeometry x="-40" y="960" width="120" height="60" as="geometry" />
        </mxCell>
        <mxCell id="XcZf_mjL38OoCe0W9eR9-87" style="edgeStyle=orthogonalEdgeStyle;rounded=0;orthogonalLoop=1;jettySize=auto;html=1;exitX=1;exitY=0.5;exitDx=0;exitDy=0;exitPerimeter=0;entryX=0.267;entryY=0.65;entryDx=0;entryDy=0;entryPerimeter=0;endArrow=none;endFill=0;" edge="1" parent="1" source="XcZf_mjL38OoCe0W9eR9-65" target="XcZf_mjL38OoCe0W9eR9-34">
          <mxGeometry relative="1" as="geometry">
            <Array as="points">
              <mxPoint x="360" y="910" />
              <mxPoint x="360" y="822" />
            </Array>
          </mxGeometry>
        </mxCell>
        <mxCell id="XcZf_mjL38OoCe0W9eR9-65" value="" style="shape=or;whiteSpace=wrap;html=1;" vertex="1" parent="1">
          <mxGeometry x="240" y="870" width="60" height="80" as="geometry" />
        </mxCell>
        <mxCell id="XcZf_mjL38OoCe0W9eR9-88" style="edgeStyle=orthogonalEdgeStyle;rounded=0;orthogonalLoop=1;jettySize=auto;html=1;exitX=1;exitY=0.5;exitDx=0;exitDy=0;exitPerimeter=0;entryX=0.175;entryY=0.75;entryDx=0;entryDy=0;entryPerimeter=0;endArrow=none;endFill=0;" edge="1" parent="1" source="XcZf_mjL38OoCe0W9eR9-66" target="XcZf_mjL38OoCe0W9eR9-34">
          <mxGeometry relative="1" as="geometry">
            <Array as="points">
              <mxPoint x="380" y="1010" />
              <mxPoint x="380" y="830" />
            </Array>
          </mxGeometry>
        </mxCell>
        <mxCell id="XcZf_mjL38OoCe0W9eR9-66" value="" style="shape=or;whiteSpace=wrap;html=1;" vertex="1" parent="1">
          <mxGeometry x="240" y="970" width="60" height="80" as="geometry" />
        </mxCell>
        <mxCell id="XcZf_mjL38OoCe0W9eR9-89" value="&lt;font style=&quot;vertical-align: inherit&quot;&gt;&lt;font style=&quot;vertical-align: inherit&quot;&gt;IN4&lt;/font&gt;&lt;/font&gt;" style="text;html=1;align=center;verticalAlign=middle;resizable=0;points=[];autosize=1;strokeColor=none;" vertex="1" parent="1">
          <mxGeometry x="125" y="870" width="30" height="20" as="geometry" />
        </mxCell>
        <mxCell id="XcZf_mjL38OoCe0W9eR9-90" value="&lt;font style=&quot;vertical-align: inherit&quot;&gt;&lt;font style=&quot;vertical-align: inherit&quot;&gt;IN5&lt;/font&gt;&lt;/font&gt;" style="text;html=1;align=center;verticalAlign=middle;resizable=0;points=[];autosize=1;strokeColor=none;" vertex="1" parent="1">
          <mxGeometry x="125" y="970" width="30" height="20" as="geometry" />
        </mxCell>
        <mxCell id="XcZf_mjL38OoCe0W9eR9-91" value="&lt;font style=&quot;vertical-align: inherit&quot;&gt;&lt;font style=&quot;vertical-align: inherit&quot;&gt;AND4&lt;/font&gt;&lt;/font&gt;" style="text;html=1;align=center;verticalAlign=middle;resizable=0;points=[];autosize=1;strokeColor=none;" vertex="1" parent="1">
          <mxGeometry x="290" y="860" width="50" height="20" as="geometry" />
        </mxCell>
        <mxCell id="XcZf_mjL38OoCe0W9eR9-92" value="&lt;font style=&quot;vertical-align: inherit&quot;&gt;&lt;font style=&quot;vertical-align: inherit&quot;&gt;AND5&lt;/font&gt;&lt;/font&gt;" style="text;html=1;align=center;verticalAlign=middle;resizable=0;points=[];autosize=1;strokeColor=none;" vertex="1" parent="1">
          <mxGeometry x="290" y="960" width="50" height="20" as="geometry" />
        </mxCell>
        <mxCell id="XcZf_mjL38OoCe0W9eR9-151" style="edgeStyle=orthogonalEdgeStyle;rounded=0;orthogonalLoop=1;jettySize=auto;html=1;exitX=1;exitY=0.5;exitDx=0;exitDy=0;exitPerimeter=0;entryX=0.083;entryY=0.1;entryDx=0;entryDy=0;entryPerimeter=0;endArrow=none;endFill=0;" edge="1" parent="1" source="XcZf_mjL38OoCe0W9eR9-94" target="XcZf_mjL38OoCe0W9eR9-100">
          <mxGeometry relative="1" as="geometry">
            <Array as="points">
              <mxPoint x="520" y="1350" />
              <mxPoint x="520" y="1628" />
            </Array>
          </mxGeometry>
        </mxCell>
        <mxCell id="XcZf_mjL38OoCe0W9eR9-94" value="" style="shape=or;whiteSpace=wrap;html=1;" vertex="1" parent="1">
          <mxGeometry x="370" y="1310" width="60" height="80" as="geometry" />
        </mxCell>
        <mxCell id="XcZf_mjL38OoCe0W9eR9-145" style="edgeStyle=orthogonalEdgeStyle;rounded=0;orthogonalLoop=1;jettySize=auto;html=1;exitX=1;exitY=0.5;exitDx=0;exitDy=0;exitPerimeter=0;entryX=0.175;entryY=0.25;entryDx=0;entryDy=0;entryPerimeter=0;endArrow=none;endFill=0;" edge="1" parent="1" source="XcZf_mjL38OoCe0W9eR9-96" target="XcZf_mjL38OoCe0W9eR9-100">
          <mxGeometry relative="1" as="geometry">
            <Array as="points">
              <mxPoint x="510" y="1450" />
              <mxPoint x="510" y="1640" />
            </Array>
          </mxGeometry>
        </mxCell>
        <mxCell id="XcZf_mjL38OoCe0W9eR9-96" value="" style="shape=or;whiteSpace=wrap;html=1;" vertex="1" parent="1">
          <mxGeometry x="370" y="1410" width="60" height="80" as="geometry" />
        </mxCell>
        <mxCell id="XcZf_mjL38OoCe0W9eR9-146" style="edgeStyle=orthogonalEdgeStyle;rounded=0;orthogonalLoop=1;jettySize=auto;html=1;exitX=1;exitY=0.5;exitDx=0;exitDy=0;exitPerimeter=0;entryX=0.217;entryY=0.363;entryDx=0;entryDy=0;entryPerimeter=0;endArrow=none;endFill=0;" edge="1" parent="1" source="XcZf_mjL38OoCe0W9eR9-98" target="XcZf_mjL38OoCe0W9eR9-100">
          <mxGeometry relative="1" as="geometry">
            <Array as="points">
              <mxPoint x="490" y="1560" />
              <mxPoint x="490" y="1649" />
            </Array>
          </mxGeometry>
        </mxCell>
        <mxCell id="XcZf_mjL38OoCe0W9eR9-98" value="" style="shape=or;whiteSpace=wrap;html=1;" vertex="1" parent="1">
          <mxGeometry x="370" y="1520" width="60" height="80" as="geometry" />
        </mxCell>
        <mxCell id="XcZf_mjL38OoCe0W9eR9-144" style="edgeStyle=orthogonalEdgeStyle;rounded=0;orthogonalLoop=1;jettySize=auto;html=1;exitX=1;exitY=0.5;exitDx=0;exitDy=0;exitPerimeter=0;endArrow=none;endFill=0;" edge="1" parent="1" source="XcZf_mjL38OoCe0W9eR9-100">
          <mxGeometry relative="1" as="geometry">
            <mxPoint x="640" y="1660" as="targetPoint" />
          </mxGeometry>
        </mxCell>
        <mxCell id="XcZf_mjL38OoCe0W9eR9-100" value="" style="shape=xor;whiteSpace=wrap;html=1;" vertex="1" parent="1">
          <mxGeometry x="530" y="1620" width="60" height="80" as="geometry" />
        </mxCell>
        <mxCell id="XcZf_mjL38OoCe0W9eR9-101" style="edgeStyle=orthogonalEdgeStyle;rounded=0;orthogonalLoop=1;jettySize=auto;html=1;exitX=1;exitY=0.5;exitDx=0;exitDy=0;entryX=0;entryY=0.25;entryDx=0;entryDy=0;entryPerimeter=0;endArrow=none;endFill=0;" edge="1" parent="1" source="XcZf_mjL38OoCe0W9eR9-103" target="XcZf_mjL38OoCe0W9eR9-94">
          <mxGeometry relative="1" as="geometry" />
        </mxCell>
        <mxCell id="XcZf_mjL38OoCe0W9eR9-103" value="Module 1" style="rounded=0;whiteSpace=wrap;html=1;" vertex="1" parent="1">
          <mxGeometry x="90" y="1300" width="120" height="60" as="geometry" />
        </mxCell>
        <mxCell id="XcZf_mjL38OoCe0W9eR9-104" style="edgeStyle=orthogonalEdgeStyle;rounded=0;orthogonalLoop=1;jettySize=auto;html=1;exitX=1;exitY=0.5;exitDx=0;exitDy=0;entryX=0;entryY=0.75;entryDx=0;entryDy=0;entryPerimeter=0;endArrow=none;endFill=0;" edge="1" parent="1" source="XcZf_mjL38OoCe0W9eR9-106" target="XcZf_mjL38OoCe0W9eR9-94">
          <mxGeometry relative="1" as="geometry" />
        </mxCell>
        <mxCell id="XcZf_mjL38OoCe0W9eR9-105" style="edgeStyle=orthogonalEdgeStyle;rounded=0;orthogonalLoop=1;jettySize=auto;html=1;exitX=1;exitY=0.5;exitDx=0;exitDy=0;entryX=0;entryY=0.25;entryDx=0;entryDy=0;entryPerimeter=0;endArrow=none;endFill=0;" edge="1" parent="1" source="XcZf_mjL38OoCe0W9eR9-106" target="XcZf_mjL38OoCe0W9eR9-96">
          <mxGeometry relative="1" as="geometry" />
        </mxCell>
        <mxCell id="XcZf_mjL38OoCe0W9eR9-106" value="Module 2" style="rounded=0;whiteSpace=wrap;html=1;" vertex="1" parent="1">
          <mxGeometry x="90" y="1400" width="120" height="60" as="geometry" />
        </mxCell>
        <mxCell id="XcZf_mjL38OoCe0W9eR9-107" style="edgeStyle=orthogonalEdgeStyle;rounded=0;orthogonalLoop=1;jettySize=auto;html=1;exitX=1;exitY=0.5;exitDx=0;exitDy=0;entryX=0;entryY=0.25;entryDx=0;entryDy=0;entryPerimeter=0;endArrow=none;endFill=0;" edge="1" parent="1" source="XcZf_mjL38OoCe0W9eR9-109" target="XcZf_mjL38OoCe0W9eR9-98">
          <mxGeometry relative="1" as="geometry" />
        </mxCell>
        <mxCell id="XcZf_mjL38OoCe0W9eR9-108" style="edgeStyle=orthogonalEdgeStyle;rounded=0;orthogonalLoop=1;jettySize=auto;html=1;exitX=1;exitY=0.5;exitDx=0;exitDy=0;entryX=0;entryY=0.75;entryDx=0;entryDy=0;entryPerimeter=0;endArrow=none;endFill=0;" edge="1" parent="1" source="XcZf_mjL38OoCe0W9eR9-109" target="XcZf_mjL38OoCe0W9eR9-96">
          <mxGeometry relative="1" as="geometry" />
        </mxCell>
        <mxCell id="XcZf_mjL38OoCe0W9eR9-109" value="Module 3" style="rounded=0;whiteSpace=wrap;html=1;" vertex="1" parent="1">
          <mxGeometry x="90" y="1510" width="120" height="60" as="geometry" />
        </mxCell>
        <mxCell id="XcZf_mjL38OoCe0W9eR9-110" value="&lt;font style=&quot;vertical-align: inherit&quot;&gt;&lt;font style=&quot;vertical-align: inherit&quot;&gt;IN1&lt;/font&gt;&lt;/font&gt;" style="text;html=1;align=center;verticalAlign=middle;resizable=0;points=[];autosize=1;strokeColor=none;" vertex="1" parent="1">
          <mxGeometry x="255" y="1300" width="30" height="20" as="geometry" />
        </mxCell>
        <mxCell id="XcZf_mjL38OoCe0W9eR9-111" value="&lt;font style=&quot;vertical-align: inherit&quot;&gt;&lt;font style=&quot;vertical-align: inherit&quot;&gt;IN2&lt;/font&gt;&lt;/font&gt;" style="text;html=1;align=center;verticalAlign=middle;resizable=0;points=[];autosize=1;strokeColor=none;" vertex="1" parent="1">
          <mxGeometry x="255" y="1400" width="30" height="20" as="geometry" />
        </mxCell>
        <mxCell id="XcZf_mjL38OoCe0W9eR9-112" value="IN3" style="text;html=1;align=center;verticalAlign=middle;resizable=0;points=[];autosize=1;strokeColor=none;" vertex="1" parent="1">
          <mxGeometry x="255" y="1520" width="30" height="20" as="geometry" />
        </mxCell>
        <mxCell id="XcZf_mjL38OoCe0W9eR9-113" value="AND1" style="text;html=1;align=center;verticalAlign=middle;resizable=0;points=[];autosize=1;strokeColor=none;" vertex="1" parent="1">
          <mxGeometry x="430" y="1310" width="50" height="20" as="geometry" />
        </mxCell>
        <mxCell id="XcZf_mjL38OoCe0W9eR9-114" value="AND2" style="text;html=1;align=center;verticalAlign=middle;resizable=0;points=[];autosize=1;strokeColor=none;" vertex="1" parent="1">
          <mxGeometry x="420" y="1400" width="50" height="20" as="geometry" />
        </mxCell>
        <mxCell id="XcZf_mjL38OoCe0W9eR9-115" value="AND3" style="text;html=1;align=center;verticalAlign=middle;resizable=0;points=[];autosize=1;strokeColor=none;" vertex="1" parent="1">
          <mxGeometry x="420" y="1510" width="50" height="20" as="geometry" />
        </mxCell>
        <mxCell id="XcZf_mjL38OoCe0W9eR9-116" value="OR1" style="text;html=1;align=center;verticalAlign=middle;resizable=0;points=[];autosize=1;strokeColor=none;" vertex="1" parent="1">
          <mxGeometry x="570" y="1600" width="40" height="20" as="geometry" />
        </mxCell>
        <mxCell id="XcZf_mjL38OoCe0W9eR9-117" value="OUT" style="text;html=1;align=center;verticalAlign=middle;resizable=0;points=[];autosize=1;strokeColor=none;" vertex="1" parent="1">
          <mxGeometry x="610" y="1660" width="40" height="20" as="geometry" />
        </mxCell>
        <mxCell id="XcZf_mjL38OoCe0W9eR9-118" style="edgeStyle=orthogonalEdgeStyle;rounded=0;orthogonalLoop=1;jettySize=auto;html=1;exitX=1;exitY=0.5;exitDx=0;exitDy=0;entryX=0;entryY=0.25;entryDx=0;entryDy=0;entryPerimeter=0;endArrow=none;endFill=0;" edge="1" parent="1" source="XcZf_mjL38OoCe0W9eR9-120" target="XcZf_mjL38OoCe0W9eR9-125">
          <mxGeometry relative="1" as="geometry" />
        </mxCell>
        <mxCell id="XcZf_mjL38OoCe0W9eR9-119" style="edgeStyle=orthogonalEdgeStyle;rounded=0;orthogonalLoop=1;jettySize=auto;html=1;exitX=1;exitY=0.5;exitDx=0;exitDy=0;entryX=0;entryY=0.75;entryDx=0;entryDy=0;entryPerimeter=0;endArrow=none;endFill=0;" edge="1" parent="1" source="XcZf_mjL38OoCe0W9eR9-120" target="XcZf_mjL38OoCe0W9eR9-98">
          <mxGeometry relative="1" as="geometry" />
        </mxCell>
        <mxCell id="XcZf_mjL38OoCe0W9eR9-120" value="&lt;font style=&quot;vertical-align: inherit&quot;&gt;&lt;font style=&quot;vertical-align: inherit&quot;&gt;Module 4&lt;/font&gt;&lt;/font&gt;" style="rounded=0;whiteSpace=wrap;html=1;" vertex="1" parent="1">
          <mxGeometry x="90" y="1610" width="120" height="60" as="geometry" />
        </mxCell>
        <mxCell id="XcZf_mjL38OoCe0W9eR9-121" style="edgeStyle=orthogonalEdgeStyle;rounded=0;orthogonalLoop=1;jettySize=auto;html=1;exitX=1;exitY=0.5;exitDx=0;exitDy=0;entryX=0;entryY=0.25;entryDx=0;entryDy=0;entryPerimeter=0;endArrow=none;endFill=0;" edge="1" parent="1" source="XcZf_mjL38OoCe0W9eR9-123" target="XcZf_mjL38OoCe0W9eR9-127">
          <mxGeometry relative="1" as="geometry" />
        </mxCell>
        <mxCell id="XcZf_mjL38OoCe0W9eR9-122" style="edgeStyle=orthogonalEdgeStyle;rounded=0;orthogonalLoop=1;jettySize=auto;html=1;exitX=1;exitY=0.5;exitDx=0;exitDy=0;entryX=0;entryY=0.75;entryDx=0;entryDy=0;entryPerimeter=0;endArrow=none;endFill=0;" edge="1" parent="1" source="XcZf_mjL38OoCe0W9eR9-123" target="XcZf_mjL38OoCe0W9eR9-125">
          <mxGeometry relative="1" as="geometry" />
        </mxCell>
        <mxCell id="XcZf_mjL38OoCe0W9eR9-123" value="&lt;font style=&quot;vertical-align: inherit&quot;&gt;&lt;font style=&quot;vertical-align: inherit&quot;&gt;Module 5&lt;/font&gt;&lt;/font&gt;" style="rounded=0;whiteSpace=wrap;html=1;" vertex="1" parent="1">
          <mxGeometry x="90" y="1710" width="120" height="60" as="geometry" />
        </mxCell>
        <mxCell id="XcZf_mjL38OoCe0W9eR9-147" style="edgeStyle=orthogonalEdgeStyle;rounded=0;orthogonalLoop=1;jettySize=auto;html=1;exitX=1;exitY=0.5;exitDx=0;exitDy=0;exitPerimeter=0;entryX=0.25;entryY=0.5;entryDx=0;entryDy=0;entryPerimeter=0;endArrow=none;endFill=0;" edge="1" parent="1" source="XcZf_mjL38OoCe0W9eR9-125" target="XcZf_mjL38OoCe0W9eR9-100">
          <mxGeometry relative="1" as="geometry" />
        </mxCell>
        <mxCell id="XcZf_mjL38OoCe0W9eR9-125" value="" style="shape=or;whiteSpace=wrap;html=1;" vertex="1" parent="1">
          <mxGeometry x="370" y="1620" width="60" height="80" as="geometry" />
        </mxCell>
        <mxCell id="XcZf_mjL38OoCe0W9eR9-148" style="edgeStyle=orthogonalEdgeStyle;rounded=0;orthogonalLoop=1;jettySize=auto;html=1;exitX=1;exitY=0.5;exitDx=0;exitDy=0;exitPerimeter=0;entryX=0.217;entryY=0.663;entryDx=0;entryDy=0;entryPerimeter=0;endArrow=none;endFill=0;" edge="1" parent="1" source="XcZf_mjL38OoCe0W9eR9-127" target="XcZf_mjL38OoCe0W9eR9-100">
          <mxGeometry relative="1" as="geometry">
            <Array as="points">
              <mxPoint x="490" y="1760" />
              <mxPoint x="490" y="1673" />
            </Array>
          </mxGeometry>
        </mxCell>
        <mxCell id="XcZf_mjL38OoCe0W9eR9-127" value="" style="shape=or;whiteSpace=wrap;html=1;" vertex="1" parent="1">
          <mxGeometry x="370" y="1720" width="60" height="80" as="geometry" />
        </mxCell>
        <mxCell id="XcZf_mjL38OoCe0W9eR9-128" value="&lt;font style=&quot;vertical-align: inherit&quot;&gt;&lt;font style=&quot;vertical-align: inherit&quot;&gt;IN4&lt;/font&gt;&lt;/font&gt;" style="text;html=1;align=center;verticalAlign=middle;resizable=0;points=[];autosize=1;strokeColor=none;" vertex="1" parent="1">
          <mxGeometry x="255" y="1620" width="30" height="20" as="geometry" />
        </mxCell>
        <mxCell id="XcZf_mjL38OoCe0W9eR9-129" value="&lt;font style=&quot;vertical-align: inherit&quot;&gt;&lt;font style=&quot;vertical-align: inherit&quot;&gt;IN5&lt;/font&gt;&lt;/font&gt;" style="text;html=1;align=center;verticalAlign=middle;resizable=0;points=[];autosize=1;strokeColor=none;" vertex="1" parent="1">
          <mxGeometry x="255" y="1720" width="30" height="20" as="geometry" />
        </mxCell>
        <mxCell id="XcZf_mjL38OoCe0W9eR9-130" value="&lt;font style=&quot;vertical-align: inherit&quot;&gt;&lt;font style=&quot;vertical-align: inherit&quot;&gt;AND4&lt;/font&gt;&lt;/font&gt;" style="text;html=1;align=center;verticalAlign=middle;resizable=0;points=[];autosize=1;strokeColor=none;" vertex="1" parent="1">
          <mxGeometry x="420" y="1610" width="50" height="20" as="geometry" />
        </mxCell>
        <mxCell id="XcZf_mjL38OoCe0W9eR9-131" value="&lt;font style=&quot;vertical-align: inherit&quot;&gt;&lt;font style=&quot;vertical-align: inherit&quot;&gt;AND5&lt;/font&gt;&lt;/font&gt;" style="text;html=1;align=center;verticalAlign=middle;resizable=0;points=[];autosize=1;strokeColor=none;" vertex="1" parent="1">
          <mxGeometry x="414" y="1710" width="50" height="20" as="geometry" />
        </mxCell>
        <mxCell id="XcZf_mjL38OoCe0W9eR9-137" style="edgeStyle=orthogonalEdgeStyle;rounded=0;orthogonalLoop=1;jettySize=auto;html=1;exitX=1;exitY=0.5;exitDx=0;exitDy=0;entryX=0;entryY=0.25;entryDx=0;entryDy=0;entryPerimeter=0;endArrow=none;endFill=0;" edge="1" parent="1" source="XcZf_mjL38OoCe0W9eR9-133" target="XcZf_mjL38OoCe0W9eR9-135">
          <mxGeometry relative="1" as="geometry" />
        </mxCell>
        <mxCell id="XcZf_mjL38OoCe0W9eR9-139" style="edgeStyle=orthogonalEdgeStyle;rounded=0;orthogonalLoop=1;jettySize=auto;html=1;exitX=1;exitY=0.5;exitDx=0;exitDy=0;entryX=0;entryY=0.75;entryDx=0;entryDy=0;entryPerimeter=0;endArrow=none;endFill=0;" edge="1" parent="1" source="XcZf_mjL38OoCe0W9eR9-133" target="XcZf_mjL38OoCe0W9eR9-127">
          <mxGeometry relative="1" as="geometry" />
        </mxCell>
        <mxCell id="XcZf_mjL38OoCe0W9eR9-133" value="&lt;font style=&quot;vertical-align: inherit&quot;&gt;&lt;font style=&quot;vertical-align: inherit&quot;&gt;Module 6&lt;/font&gt;&lt;/font&gt;" style="rounded=0;whiteSpace=wrap;html=1;" vertex="1" parent="1">
          <mxGeometry x="90" y="1810" width="120" height="60" as="geometry" />
        </mxCell>
        <mxCell id="XcZf_mjL38OoCe0W9eR9-140" style="edgeStyle=orthogonalEdgeStyle;rounded=0;orthogonalLoop=1;jettySize=auto;html=1;exitX=1;exitY=0.5;exitDx=0;exitDy=0;entryX=0;entryY=0.25;entryDx=0;entryDy=0;entryPerimeter=0;endArrow=none;endFill=0;" edge="1" parent="1" source="XcZf_mjL38OoCe0W9eR9-134" target="XcZf_mjL38OoCe0W9eR9-136">
          <mxGeometry relative="1" as="geometry" />
        </mxCell>
        <mxCell id="XcZf_mjL38OoCe0W9eR9-141" style="edgeStyle=orthogonalEdgeStyle;rounded=0;orthogonalLoop=1;jettySize=auto;html=1;exitX=1;exitY=0.5;exitDx=0;exitDy=0;entryX=0;entryY=0.75;entryDx=0;entryDy=0;entryPerimeter=0;endArrow=none;endFill=0;" edge="1" parent="1" source="XcZf_mjL38OoCe0W9eR9-134" target="XcZf_mjL38OoCe0W9eR9-135">
          <mxGeometry relative="1" as="geometry" />
        </mxCell>
        <mxCell id="XcZf_mjL38OoCe0W9eR9-134" value="&lt;font style=&quot;vertical-align: inherit&quot;&gt;&lt;font style=&quot;vertical-align: inherit&quot;&gt;Module 7&lt;/font&gt;&lt;/font&gt;" style="rounded=0;whiteSpace=wrap;html=1;" vertex="1" parent="1">
          <mxGeometry x="90" y="1910" width="120" height="60" as="geometry" />
        </mxCell>
        <mxCell id="XcZf_mjL38OoCe0W9eR9-149" style="edgeStyle=orthogonalEdgeStyle;rounded=0;orthogonalLoop=1;jettySize=auto;html=1;exitX=1;exitY=0.5;exitDx=0;exitDy=0;exitPerimeter=0;entryX=0.175;entryY=0.75;entryDx=0;entryDy=0;entryPerimeter=0;endArrow=none;endFill=0;" edge="1" parent="1" source="XcZf_mjL38OoCe0W9eR9-135" target="XcZf_mjL38OoCe0W9eR9-100">
          <mxGeometry relative="1" as="geometry">
            <Array as="points">
              <mxPoint x="510" y="1860" />
              <mxPoint x="510" y="1680" />
            </Array>
          </mxGeometry>
        </mxCell>
        <mxCell id="XcZf_mjL38OoCe0W9eR9-135" value="" style="shape=or;whiteSpace=wrap;html=1;" vertex="1" parent="1">
          <mxGeometry x="370" y="1820" width="60" height="80" as="geometry" />
        </mxCell>
        <mxCell id="XcZf_mjL38OoCe0W9eR9-150" style="edgeStyle=orthogonalEdgeStyle;rounded=0;orthogonalLoop=1;jettySize=auto;html=1;exitX=1;exitY=0.5;exitDx=0;exitDy=0;exitPerimeter=0;entryX=0.083;entryY=0.888;entryDx=0;entryDy=0;entryPerimeter=0;endArrow=none;endFill=0;" edge="1" parent="1" source="XcZf_mjL38OoCe0W9eR9-136" target="XcZf_mjL38OoCe0W9eR9-100">
          <mxGeometry relative="1" as="geometry">
            <Array as="points">
              <mxPoint x="520" y="1960" />
              <mxPoint x="520" y="1691" />
            </Array>
          </mxGeometry>
        </mxCell>
        <mxCell id="XcZf_mjL38OoCe0W9eR9-136" value="" style="shape=or;whiteSpace=wrap;html=1;" vertex="1" parent="1">
          <mxGeometry x="370" y="1920" width="60" height="80" as="geometry" />
        </mxCell>
        <mxCell id="XcZf_mjL38OoCe0W9eR9-142" value="&lt;font style=&quot;vertical-align: inherit&quot;&gt;&lt;font style=&quot;vertical-align: inherit&quot;&gt;IN6&lt;/font&gt;&lt;/font&gt;" style="text;html=1;align=center;verticalAlign=middle;resizable=0;points=[];autosize=1;strokeColor=none;" vertex="1" parent="1">
          <mxGeometry x="255" y="1810" width="30" height="20" as="geometry" />
        </mxCell>
        <mxCell id="XcZf_mjL38OoCe0W9eR9-143" value="&lt;font style=&quot;vertical-align: inherit&quot;&gt;&lt;font style=&quot;vertical-align: inherit&quot;&gt;IN7&lt;/font&gt;&lt;/font&gt;" style="text;html=1;align=center;verticalAlign=middle;resizable=0;points=[];autosize=1;strokeColor=none;" vertex="1" parent="1">
          <mxGeometry x="255" y="1910" width="30" height="20" as="geometry" />
        </mxCell>
        <mxCell id="XcZf_mjL38OoCe0W9eR9-152" value="AND6" style="text;html=1;align=center;verticalAlign=middle;resizable=0;points=[];autosize=1;strokeColor=none;" vertex="1" parent="1">
          <mxGeometry x="405" y="1810" width="50" height="20" as="geometry" />
        </mxCell>
        <mxCell id="XcZf_mjL38OoCe0W9eR9-154" value="AND7" style="text;html=1;align=center;verticalAlign=middle;resizable=0;points=[];autosize=1;strokeColor=none;" vertex="1" parent="1">
          <mxGeometry x="415" y="1920" width="50" height="20" as="geometry" />
        </mxCell>
      </root>
    </mxGraphModel>
  </diagram>
</mxfile>
